<?xml version="1.0" standalone="no"?>
<!DOCTYPE svg PUBLIC "-//W3C//DTD SVG 20010904//EN"
 "http://www.w3.org/TR/2001/REC-SVG-20010904/DTD/svg10.dtd">
<svg version="1.0" xmlns="http://www.w3.org/2000/svg"
 width="1536.000000pt" height="1024.000000pt" viewBox="0 0 1536.000000 1024.000000"
 preserveAspectRatio="xMidYMid meet">

<g transform="translate(0.000000,1024.000000) scale(0.100000,-0.100000)"
fill="#000000" stroke="none">
<path d="M1700 3536 c0 -5 117 -210 348 -611 64 -110 127 -219 140 -243 l24
-43 101 3 102 3 54 90 c58 97 351 594 419 712 23 39 42 76 42 83 0 7 -32 10
-102 8 l-102 -3 -103 -175 c-57 -96 -138 -233 -179 -305 -42 -71 -89 -149
-103 -172 l-27 -43 -71 123 c-40 67 -130 223 -202 347 l-130 225 -105 3 c-58
1 -106 0 -106 -2z"/>
<path d="M3427 3534 c-4 -4 -7 -207 -7 -451 l0 -443 100 0 100 0 -2 448 -3
447 -90 3 c-50 1 -94 0 -98 -4z"/>
<path d="M4408 3526 c-103 -28 -161 -90 -180 -196 -23 -120 20 -235 106 -285
69 -39 129 -45 447 -45 l300 0 24 -25 c37 -36 35 -97 -4 -136 l-29 -29 -421 0
-421 0 0 -85 0 -85 448 0 c428 0 449 1 492 21 56 25 95 62 123 114 18 33 22
58 22 135 0 86 -3 99 -28 142 -15 26 -40 56 -56 68 -67 47 -95 50 -423 50
-350 0 -370 3 -386 63 -13 46 -5 81 25 109 27 25 -11 24 746 27 l98 1 -3 83
-3 82 -415 2 c-309 1 -427 -1 -462 -11z"/>
<path d="M5920 3090 l0 -450 95 0 95 0 0 180 0 180 370 0 370 0 0 -180 0 -180
95 0 95 0 0 450 0 450 -95 0 -95 0 0 -185 0 -185 -367 2 -368 3 -3 183 -2 182
-95 0 -95 0 0 -450z"/>
<path d="M2924 2147 c-2 -7 -3 -65 -2 -127 3 -100 5 -115 21 -118 15 -3 17 8
17 127 0 111 -2 131 -15 131 -9 0 -18 -6 -21 -13z"/>
<path d="M3072 2033 c3 -106 6 -128 18 -128 12 0 16 18 18 94 l3 95 71 -97
c39 -53 77 -97 84 -97 11 0 14 27 14 130 0 107 -3 130 -15 130 -11 0 -15 -20
-17 -96 l-3 -96 -70 93 c-38 52 -78 95 -88 97 -16 3 -17 -6 -15 -125z"/>
<path d="M3375 2150 c-11 -18 5 -30 40 -30 l34 0 3 -107 c2 -88 6 -108 18
-108 12 0 16 20 18 113 l3 112 40 0 c28 0 39 4 37 13 -6 15 -183 23 -193 7z"/>
<path d="M3659 2158 c0 -2 -1 -56 -2 -121 -1 -138 -2 -137 90 -135 109 3 115
29 8 36 l-65 4 0 39 0 39 65 0 c51 0 65 3 65 15 0 12 -14 15 -66 15 l-65 0 3
36 3 37 65 1 c51 1 65 4 65 16 0 12 -17 16 -82 18 -46 2 -83 2 -84 0z"/>
<path d="M3930 2030 l0 -131 77 3 c65 3 78 6 81 21 3 15 -5 17 -60 17 l-64 0
1 107 c0 95 -2 108 -17 111 -16 3 -18 -8 -18 -128z"/>
<path d="M4180 2030 l0 -130 78 7 c85 6 87 7 77 22 -3 6 -33 11 -66 11 l-59 0
0 110 c0 91 -3 110 -15 110 -13 0 -15 -21 -15 -130z"/>
<path d="M4432 2033 c3 -106 6 -128 18 -128 13 0 15 21 15 125 0 112 -2 125
-18 128 -16 3 -17 -6 -15 -125z"/>
<path d="M4626 2141 c-39 -26 -55 -57 -56 -109 0 -57 21 -96 64 -116 76 -36
160 -5 184 69 7 22 9 42 4 47 -14 14 -125 5 -130 -9 -2 -9 11 -13 47 -13 59 0
63 -10 22 -51 -54 -53 -130 -33 -152 41 -15 49 1 95 42 115 38 20 58 19 97 -5
32 -20 52 -19 52 1 0 18 -65 49 -105 49 -23 0 -53 -8 -69 -19z"/>
<path d="M4927 2154 c-9 -9 -9 -111 -1 -193 l7 -62 81 3 c64 2 81 6 81 18 0
12 -15 16 -67 18 l-68 3 0 39 0 40 66 0 c48 0 65 3 62 13 -3 7 -28 13 -66 15
l-62 3 0 34 0 34 68 3 c52 2 67 6 67 18 0 12 -17 16 -80 18 -45 1 -84 0 -88
-4z"/>
<path d="M5200 2035 c0 -103 3 -125 15 -125 11 0 15 19 17 93 l3 92 65 -92
c62 -88 96 -116 106 -89 3 7 3 64 2 126 -3 99 -5 115 -20 118 -15 3 -18 -8
-20 -93 l-3 -96 -68 95 c-38 53 -75 96 -83 96 -11 0 -14 -24 -14 -125z"/>
<path d="M5492 2143 c2 -13 14 -19 41 -21 l37 -3 0 -110 c0 -90 3 -109 15
-109 12 0 15 19 15 110 l0 110 40 0 c33 0 40 3 40 20 0 19 -7 20 -96 20 -86 0
-95 -2 -92 -17z"/>
<path d="M5925 2135 c-44 -43 -28 -85 42 -111 60 -22 73 -32 73 -55 0 -38 -66
-52 -95 -19 -21 23 -45 26 -45 7 0 -40 91 -71 137 -46 65 35 47 102 -37 134
-42 16 -56 26 -58 44 -6 39 52 58 78 26 14 -16 50 -21 50 -6 0 5 -12 19 -26
30 -37 29 -89 27 -119 -4z"/>
<path d="M6224 2144 c-82 -40 -86 -183 -6 -226 14 -7 47 -13 73 -13 60 0 99
27 119 83 39 112 -77 210 -186 156z m127 -43 c23 -23 29 -38 29 -71 0 -109
-146 -137 -180 -35 -33 101 78 179 151 106z"/>
<path d="M6512 2033 l3 -128 78 -3 c71 -3 78 -1 75 15 -3 14 -15 19 -60 21
l-57 3 -3 107 c-3 93 -5 107 -21 110 -16 3 -17 -6 -15 -125z"/>
<path d="M6754 2146 c-3 -9 -4 -56 -3 -106 5 -104 19 -128 86 -137 91 -12 127
41 121 177 -2 62 -6 75 -20 78 -16 3 -18 -6 -18 -92 0 -83 -3 -99 -20 -116
-23 -23 -58 -26 -86 -6 -16 12 -20 30 -24 112 -3 65 -9 99 -17 102 -7 2 -16
-3 -19 -12z"/>
<path d="M7040 2146 c0 -10 12 -16 37 -18 l38 -3 3 -105 c2 -58 8 -109 12
-114 15 -15 19 11 22 119 l3 100 38 3 c24 2 37 8 34 15 -2 8 -36 13 -95 15
-76 2 -92 0 -92 -12z"/>
<path d="M7315 2148 c-3 -8 -4 -66 -3 -129 2 -93 6 -114 18 -114 13 0 15 20
15 124 0 91 -3 125 -12 128 -7 3 -15 -2 -18 -9z"/>
<path d="M7499 2137 c-22 -15 -39 -38 -49 -65 -28 -82 23 -160 111 -169 63 -6
109 21 134 81 17 43 18 50 5 89 -19 53 -67 87 -125 87 -27 0 -54 -8 -76 -23z
m149 -42 c31 -36 30 -95 -2 -132 -20 -23 -32 -28 -69 -28 -72 0 -108 50 -92
126 15 68 115 89 163 34z"/>
<path d="M7800 2030 c0 -107 3 -130 15 -130 11 0 15 20 17 98 l3 97 73 -97
c40 -54 79 -98 87 -98 13 0 15 21 15 130 0 107 -3 130 -15 130 -11 0 -15 -20
-17 -97 l-3 -98 -73 98 c-40 53 -79 97 -87 97 -13 0 -15 -21 -15 -130z"/>
<path d="M8136 2139 c-30 -24 -35 -69 -10 -90 10 -8 40 -23 68 -35 55 -22 67
-42 41 -68 -22 -22 -61 -20 -85 4 -23 23 -40 26 -40 8 1 -69 139 -77 169 -11
18 40 -5 73 -67 98 -30 11 -58 28 -63 37 -20 36 53 66 81 33 14 -16 50 -21 50
-6 0 19 -54 51 -85 51 -18 0 -44 -9 -59 -21z"/>
<path d="M8645 2149 c-4 -6 -4 -64 0 -130 l7 -119 37 0 c62 0 111 12 111 26 0
10 -16 14 -60 14 l-60 0 0 110 c0 89 -3 110 -14 110 -8 0 -18 -5 -21 -11z"/>
<path d="M8895 2148 c-3 -8 -4 -66 -3 -129 2 -93 6 -114 18 -114 13 0 15 20
15 124 0 91 -3 125 -12 128 -7 3 -15 -2 -18 -9z"/>
<path d="M9039 2153 c-1 -5 -2 -61 -3 -125 -1 -106 1 -118 17 -118 15 0 17 11
17 82 0 48 4 78 9 73 5 -6 22 -41 39 -80 17 -39 38 -71 47 -73 11 -3 27 21 58
85 l42 88 5 -89 c3 -59 9 -91 18 -94 9 -3 12 27 12 128 0 164 -10 167 -84 27
l-51 -98 -47 101 c-30 64 -52 100 -62 100 -9 0 -17 -3 -17 -7z"/>
<path d="M9410 2030 c0 -109 2 -130 15 -130 13 0 15 21 15 130 0 109 -2 130
-15 130 -13 0 -15 -21 -15 -130z"/>
<path d="M9532 2143 c2 -11 13 -19 28 -20 14 0 30 -1 37 -2 9 -1 13 -33 15
-108 2 -72 7 -108 15 -110 9 -3 13 25 15 109 l3 113 35 1 c25 0 36 5 38 17 3
15 -8 17 -93 17 -87 0 -96 -2 -93 -17z"/>
<path d="M9812 2033 l3 -128 58 -1 c72 -2 97 4 97 22 0 10 -16 14 -60 14 l-59
0 -3 107 c-3 94 -5 108 -21 111 -16 3 -17 -6 -15 -125z"/>
<path d="M10062 2033 l3 -128 83 -3 c76 -3 83 -1 80 15 -3 15 -15 19 -66 21
l-62 3 0 39 0 40 60 0 c47 0 60 3 60 15 0 12 -13 15 -60 15 l-60 0 0 38 0 37
62 0 c52 0 63 3 66 18 3 15 -6 17 -83 17 l-86 0 3 -127z"/>
<path d="M10346 2139 c-30 -24 -35 -69 -10 -90 9 -8 37 -21 62 -30 25 -8 50
-23 56 -32 28 -44 -56 -78 -91 -38 -19 23 -43 28 -43 9 1 -31 42 -58 89 -58
43 0 60 9 77 42 23 44 2 77 -66 103 -42 16 -56 26 -58 44 -6 39 52 58 78 26
14 -16 50 -21 50 -6 0 19 -54 51 -85 51 -18 0 -44 -9 -59 -21z"/>
<path d="M10605 2135 c-46 -45 -28 -84 50 -114 27 -10 54 -26 60 -35 27 -43
-54 -76 -90 -36 -21 23 -45 26 -45 6 0 -26 50 -56 92 -56 44 0 88 35 88 69 0
30 -39 66 -92 85 -32 12 -48 23 -48 35 0 41 56 55 88 23 18 -18 42 -19 42 -2
0 5 -10 18 -22 30 -32 29 -92 27 -123 -5z"/>
<path d="M10992 2033 c3 -106 6 -128 18 -128 11 0 16 14 18 53 3 51 4 52 35
52 47 0 77 10 77 26 0 10 -15 14 -55 14 l-55 0 0 39 c0 35 3 40 23 39 62 -4
97 3 97 17 0 12 -16 15 -80 15 l-81 0 3 -127z"/>
<path d="M11240 2062 c0 -85 3 -103 20 -125 35 -45 119 -48 160 -7 17 17 20
34 20 125 0 87 -3 105 -15 105 -12 0 -15 -17 -15 -95 0 -82 -3 -98 -20 -115
-25 -25 -61 -26 -89 -2 -18 15 -21 30 -23 112 -3 81 -6 95 -20 98 -16 3 -18
-7 -18 -96z"/>
<path d="M11527 2154 c-15 -15 -5 -24 33 -30 l39 -6 3 -107 c2 -86 6 -106 18
-106 12 0 16 20 18 113 l3 112 40 0 c28 0 39 4 37 13 -5 13 -178 23 -191 11z"/>
<path d="M11800 2061 c0 -84 3 -102 20 -124 35 -45 119 -48 160 -7 17 17 20
34 20 125 0 87 -3 105 -15 105 -12 0 -15 -17 -15 -95 0 -107 -14 -135 -68
-135 -51 0 -67 30 -70 136 -3 72 -7 94 -18 94 -11 0 -14 -21 -14 -99z"/>
<path d="M12108 2154 c-5 -4 -8 -61 -8 -126 0 -111 1 -118 20 -118 17 0 20 7
20 40 0 35 3 40 23 40 16 0 33 -13 54 -43 18 -25 40 -43 52 -44 28 -2 27 2
-14 50 -33 38 -34 42 -16 48 25 10 51 48 51 76 0 12 -11 34 -24 49 -20 24 -33
28 -87 32 -35 2 -67 0 -71 -4z m128 -45 c18 -14 18 -53 1 -67 -7 -6 -32 -14
-55 -18 l-42 -7 0 51 c0 31 5 52 13 55 19 6 69 -2 83 -14z"/>
<path d="M12389 2153 c0 -4 -1 -62 -1 -128 l0 -120 83 0 c68 0 84 3 84 15 0
12 -15 16 -67 18 l-68 3 0 39 0 40 65 0 c51 0 65 3 65 15 0 12 -14 15 -65 15
l-65 0 0 38 0 37 67 0 c54 0 68 3 68 15 0 12 -17 16 -82 18 -46 2 -83 -1 -84
-5z"/>
<path d="M8362 1923 c2 -10 10 -18 18 -18 8 0 16 8 18 18 2 12 -3 17 -18 17
-15 0 -20 -5 -18 -17z"/>
<path d="M12642 1923 c2 -10 10 -18 18 -18 8 0 16 8 18 18 2 12 -3 17 -18 17
-15 0 -20 -5 -18 -17z"/>
</g>
</svg>
